<mxfile modified="2020-06-16T19:33:41.620Z" host="app.diagrams.net" agent="5.0 (X11; Linux x86_64) AppleWebKit/537.36 (KHTML, like Gecko) Chrome/83.0.4103.97 Safari/537.36" etag="tJ4pdN9AbUQPenmEO56k" version="13.2.4" type="github" pages="2">
  <diagram id="DixsoqY07xgRHShbC0ki" name="Page-2">
    <mxGraphModel dx="1764" dy="1041" grid="1" gridSize="10" guides="1" tooltips="1" connect="1" arrows="1" fold="1" page="1" pageScale="1" pageWidth="1100" pageHeight="850" math="0" shadow="0">
      <root>
        <mxCell id="L9JoxpAC8Ri2-nQZ87xy-0" />
        <mxCell id="L9JoxpAC8Ri2-nQZ87xy-1" parent="L9JoxpAC8Ri2-nQZ87xy-0" />
        <mxCell id="Malt39JZ_xL9a8AfTyW2-0" value="Dev Pipeline" style="fillColor=#eeeeee;strokeColor=none;dashed=0;verticalAlign=top;fontStyle=5;rounded=1;glass=0;labelBackgroundColor=none;comic=0;shadow=0;fontSize=15;arcSize=16;" parent="L9JoxpAC8Ri2-nQZ87xy-1" vertex="1">
          <mxGeometry x="170" y="70" width="380" height="480" as="geometry" />
        </mxCell>
        <mxCell id="9v4CbOe1MFMxvTRzavbD-0" value="Developer" style="outlineConnect=0;fontColor=#232F3E;gradientColor=none;fillColor=#232F3E;strokeColor=none;dashed=0;verticalLabelPosition=top;verticalAlign=bottom;align=center;html=1;fontSize=12;fontStyle=0;aspect=fixed;pointerEvents=1;shape=mxgraph.aws4.user;rounded=1;shadow=0;glass=0;comic=0;labelBackgroundColor=none;labelPosition=center;" parent="L9JoxpAC8Ri2-nQZ87xy-1" vertex="1">
          <mxGeometry x="40" y="150" width="50" height="50" as="geometry" />
        </mxCell>
        <mxCell id="JDOies7mQPJogOU3eaik-5" value="" style="html=1;labelBackgroundColor=#ffffff;endArrow=classic;endFill=1;endSize=3;jettySize=auto;orthogonalLoop=1;strokeWidth=2;fontSize=14;fillColor=#1ba1e2;strokeColor=#006EAF;" parent="L9JoxpAC8Ri2-nQZ87xy-1" source="9v4CbOe1MFMxvTRzavbD-0" target="v-hs1biW2QBiMTrHmEXB-0" edge="1">
          <mxGeometry width="60" height="60" relative="1" as="geometry">
            <mxPoint x="90" y="174.57999999999998" as="sourcePoint" />
            <mxPoint x="160" y="174.57999999999998" as="targetPoint" />
            <Array as="points">
              <mxPoint x="120" y="174.57999999999998" />
            </Array>
          </mxGeometry>
        </mxCell>
        <mxCell id="JDOies7mQPJogOU3eaik-6" value="&lt;b style=&quot;font-size: 10px;&quot;&gt;&lt;font face=&quot;Tahoma&quot; style=&quot;font-size: 10px;&quot;&gt;1&lt;/font&gt;&lt;/b&gt;" style="ellipse;whiteSpace=wrap;html=1;aspect=fixed;rounded=1;shadow=0;glass=0;comic=0;labelBackgroundColor=none;strokeColor=#000000;fillColor=#99DAFF;gradientColor=none;labelBorderColor=none;fontColor=#858585;perimeterSpacing=29;strokeWidth=2;fontSize=10;" parent="L9JoxpAC8Ri2-nQZ87xy-1" vertex="1">
          <mxGeometry x="140" y="160" width="20" height="20" as="geometry" />
        </mxCell>
        <mxCell id="wR72YHIJxS_Ip5BLtquk-3" style="edgeStyle=orthogonalEdgeStyle;rounded=0;orthogonalLoop=1;jettySize=auto;html=1;exitX=0.5;exitY=1;exitDx=0;exitDy=0;endSize=3;strokeWidth=2;fontSize=10;fontColor=#007FFF;strokeColor=#006EAF;" parent="L9JoxpAC8Ri2-nQZ87xy-1" source="v-hs1biW2QBiMTrHmEXB-0" edge="1">
          <mxGeometry relative="1" as="geometry">
            <mxPoint x="260" y="280" as="targetPoint" />
          </mxGeometry>
        </mxCell>
        <mxCell id="v-hs1biW2QBiMTrHmEXB-0" value="GIT Repo" style="shape=image;html=1;verticalAlign=bottom;verticalLabelPosition=top;labelBackgroundColor=none;imageAspect=0;aspect=fixed;image=https://cdn1.iconfinder.com/data/icons/logotypes/32/github-128.png;rounded=1;shadow=0;glass=0;comic=0;strokeColor=#000000;strokeWidth=2;fillColor=#99DAFF;gradientColor=none;fontSize=10;fontColor=#007FFF;labelPosition=center;align=center;" parent="L9JoxpAC8Ri2-nQZ87xy-1" vertex="1">
          <mxGeometry x="230" y="140" width="60" height="60" as="geometry" />
        </mxCell>
        <mxCell id="dovv9voZfbSdIfHA2Pay-2" style="edgeStyle=orthogonalEdgeStyle;rounded=0;orthogonalLoop=1;jettySize=auto;html=1;endSize=3;strokeColor=#006EAF;strokeWidth=2;fontSize=10;fontColor=#007FFF;" parent="L9JoxpAC8Ri2-nQZ87xy-1" edge="1">
          <mxGeometry relative="1" as="geometry">
            <mxPoint x="260" y="370" as="sourcePoint" />
            <mxPoint x="260" y="420" as="targetPoint" />
          </mxGeometry>
        </mxCell>
        <mxCell id="wR72YHIJxS_Ip5BLtquk-0" value="Build Code" style="shape=image;html=1;verticalAlign=bottom;verticalLabelPosition=top;labelBackgroundColor=none;imageAspect=0;aspect=fixed;image=https://cdn4.iconfinder.com/data/icons/logos-brands-5/24/jenkins-128.png;rounded=1;shadow=0;glass=0;comic=0;strokeColor=#000000;strokeWidth=2;fillColor=#99DAFF;gradientColor=none;fontSize=10;fontColor=#007FFF;labelPosition=center;align=center;" parent="L9JoxpAC8Ri2-nQZ87xy-1" vertex="1">
          <mxGeometry x="230" y="300" width="60" height="60" as="geometry" />
        </mxCell>
        <mxCell id="JlatcwfN3VyWh-tWeuxA-0" value="&lt;b style=&quot;font-size: 10px&quot;&gt;&lt;font face=&quot;Tahoma&quot; style=&quot;font-size: 10px&quot;&gt;2&lt;/font&gt;&lt;/b&gt;" style="ellipse;whiteSpace=wrap;html=1;aspect=fixed;rounded=1;shadow=0;glass=0;comic=0;labelBackgroundColor=none;strokeColor=#000000;fillColor=#99DAFF;gradientColor=none;labelBorderColor=none;fontColor=#858585;perimeterSpacing=29;strokeWidth=2;fontSize=10;" parent="L9JoxpAC8Ri2-nQZ87xy-1" vertex="1">
          <mxGeometry x="250" y="230" width="20" height="20" as="geometry" />
        </mxCell>
        <mxCell id="2DKBSkh30BHSRn9Pru6w-0" value="Docker Registry" style="shape=image;html=1;verticalAlign=top;verticalLabelPosition=bottom;labelBackgroundColor=none;imageAspect=0;aspect=fixed;image=https://cdn3.iconfinder.com/data/icons/logos-and-brands-adobe/512/97_Docker-128.png;rounded=1;shadow=0;glass=0;comic=0;strokeColor=#000000;strokeWidth=2;fillColor=#99DAFF;gradientColor=none;fontSize=10;fontColor=#007FFF;labelPosition=center;align=center;whiteSpace=wrap;" parent="L9JoxpAC8Ri2-nQZ87xy-1" vertex="1">
          <mxGeometry x="230" y="425" width="60" height="60" as="geometry" />
        </mxCell>
        <mxCell id="tx1DFKtjOjGbV4j4rzNq-0" value="&lt;b style=&quot;font-size: 10px&quot;&gt;&lt;font face=&quot;Tahoma&quot; style=&quot;font-size: 10px&quot;&gt;3&lt;/font&gt;&lt;/b&gt;" style="ellipse;whiteSpace=wrap;html=1;aspect=fixed;rounded=1;shadow=0;glass=0;comic=0;labelBackgroundColor=none;strokeColor=#000000;fillColor=#99DAFF;gradientColor=none;labelBorderColor=none;fontColor=#858585;perimeterSpacing=29;strokeWidth=2;fontSize=10;" parent="L9JoxpAC8Ri2-nQZ87xy-1" vertex="1">
          <mxGeometry x="250" y="380" width="20" height="20" as="geometry" />
        </mxCell>
        <mxCell id="eDk7RjFjjJVBvUyR8DGY-2" value="Dev Pipeline" style="fillColor=#ffffff;strokeColor=#000000;dashed=0;verticalAlign=top;fontStyle=5;rounded=0;glass=0;labelBackgroundColor=none;comic=0;shadow=0;fontSize=15;strokeWidth=1;" parent="L9JoxpAC8Ri2-nQZ87xy-1" vertex="1">
          <mxGeometry x="90" y="630" width="420" height="140" as="geometry" />
        </mxCell>
        <mxCell id="eDk7RjFjjJVBvUyR8DGY-3" value="&lt;b&gt;1&lt;/b&gt; Commit to Develop" style="text;html=1;resizable=0;autosize=1;align=left;verticalAlign=middle;points=[];fillColor=none;strokeColor=none;rounded=0;shadow=0;glass=0;comic=0;labelBackgroundColor=none;fontSize=15;fontColor=#007FFF;" parent="L9JoxpAC8Ri2-nQZ87xy-1" vertex="1">
          <mxGeometry x="100" y="670" width="160" height="20" as="geometry" />
        </mxCell>
        <mxCell id="2_ZMZsjayCarhj9qmctp-0" value="&lt;b&gt;2&lt;/b&gt; Code push Trigger" style="text;html=1;resizable=0;autosize=1;align=left;verticalAlign=middle;points=[];fillColor=none;strokeColor=none;rounded=0;shadow=0;glass=0;comic=0;labelBackgroundColor=none;fontSize=15;fontColor=#007FFF;" parent="L9JoxpAC8Ri2-nQZ87xy-1" vertex="1">
          <mxGeometry x="100" y="700" width="150" height="20" as="geometry" />
        </mxCell>
        <mxCell id="nmo0jEAYQt4xiB4I9eW3-0" value="&lt;b&gt;3&lt;/b&gt; Publish Docker Image" style="text;html=1;resizable=0;autosize=1;align=left;verticalAlign=middle;points=[];fillColor=none;strokeColor=none;rounded=0;shadow=0;glass=0;comic=0;labelBackgroundColor=none;fontSize=15;fontColor=#007FFF;" parent="L9JoxpAC8Ri2-nQZ87xy-1" vertex="1">
          <mxGeometry x="290" y="670" width="170" height="20" as="geometry" />
        </mxCell>
        <mxCell id="bzCkto_3XrrI7sRqy22B-0" value="&lt;b&gt;4&lt;/b&gt; Deploy to eks via Helm" style="text;html=1;resizable=0;autosize=1;align=left;verticalAlign=middle;points=[];fillColor=none;strokeColor=none;rounded=0;shadow=0;glass=0;comic=0;labelBackgroundColor=none;fontSize=15;fontColor=#007FFF;" parent="L9JoxpAC8Ri2-nQZ87xy-1" vertex="1">
          <mxGeometry x="290" y="700" width="180" height="20" as="geometry" />
        </mxCell>
        <mxCell id="ja6iWN-40AisyCTLCEKB-1" value="us-east-1" style="points=[[0,0],[0.25,0],[0.5,0],[0.75,0],[1,0],[1,0.25],[1,0.5],[1,0.75],[1,1],[0.75,1],[0.5,1],[0.25,1],[0,1],[0,0.75],[0,0.5],[0,0.25]];outlineConnect=0;gradientColor=none;html=1;whiteSpace=wrap;fontSize=12;fontStyle=0;shape=mxgraph.aws4.group;grIcon=mxgraph.aws4.group_region;strokeColor=#147EBA;fillColor=#ffffff;verticalAlign=top;align=left;spacingLeft=30;fontColor=#147EBA;dashed=0;rounded=0;labelBackgroundColor=none;" parent="L9JoxpAC8Ri2-nQZ87xy-1" vertex="1">
          <mxGeometry x="406" y="245" width="130" height="130" as="geometry" />
        </mxCell>
        <mxCell id="tx1DFKtjOjGbV4j4rzNq-1" value="Dev Cluster" style="outlineConnect=0;fontColor=#232F3E;gradientColor=none;gradientDirection=north;fillColor=#D05C17;strokeColor=#ffffff;dashed=0;verticalLabelPosition=bottom;verticalAlign=top;align=center;html=1;fontSize=12;fontStyle=0;aspect=fixed;shape=mxgraph.aws4.resourceIcon;resIcon=mxgraph.aws4.eks;rounded=1;shadow=0;glass=0;comic=0;labelBackgroundColor=none;" parent="L9JoxpAC8Ri2-nQZ87xy-1" vertex="1">
          <mxGeometry x="432" y="271" width="78" height="78" as="geometry" />
        </mxCell>
        <mxCell id="eDk7RjFjjJVBvUyR8DGY-0" style="edgeStyle=orthogonalEdgeStyle;rounded=0;orthogonalLoop=1;jettySize=auto;html=1;exitX=1;exitY=0.75;exitDx=0;exitDy=0;endSize=3;strokeColor=#006EAF;strokeWidth=2;fontSize=15;fontColor=#007FFF;" parent="L9JoxpAC8Ri2-nQZ87xy-1" source="wR72YHIJxS_Ip5BLtquk-0" target="tx1DFKtjOjGbV4j4rzNq-1" edge="1">
          <mxGeometry relative="1" as="geometry">
            <Array as="points">
              <mxPoint x="290" y="350" />
              <mxPoint x="370" y="350" />
              <mxPoint x="370" y="310" />
            </Array>
          </mxGeometry>
        </mxCell>
        <mxCell id="tx1DFKtjOjGbV4j4rzNq-3" value="&lt;b style=&quot;font-size: 10px&quot;&gt;&lt;font face=&quot;Tahoma&quot; style=&quot;font-size: 10px&quot;&gt;4&lt;/font&gt;&lt;/b&gt;" style="ellipse;whiteSpace=wrap;html=1;aspect=fixed;rounded=1;shadow=0;glass=0;comic=0;labelBackgroundColor=none;strokeColor=#000000;fillColor=#99DAFF;gradientColor=none;labelBorderColor=none;fontColor=#858585;perimeterSpacing=29;strokeWidth=2;fontSize=10;" parent="L9JoxpAC8Ri2-nQZ87xy-1" vertex="1">
          <mxGeometry x="350" y="340" width="20" height="20" as="geometry" />
        </mxCell>
        <mxCell id="ja6iWN-40AisyCTLCEKB-4" value="Release Pipeline" style="fillColor=#eeeeee;strokeColor=none;dashed=0;verticalAlign=top;fontStyle=5;rounded=1;glass=0;labelBackgroundColor=none;comic=0;shadow=0;fontSize=15;arcSize=16;" parent="L9JoxpAC8Ri2-nQZ87xy-1" vertex="1">
          <mxGeometry x="690" y="70" width="380" height="480" as="geometry" />
        </mxCell>
        <mxCell id="ja6iWN-40AisyCTLCEKB-5" value="us-east-1" style="points=[[0,0],[0.25,0],[0.5,0],[0.75,0],[1,0],[1,0.25],[1,0.5],[1,0.75],[1,1],[0.75,1],[0.5,1],[0.25,1],[0,1],[0,0.75],[0,0.5],[0,0.25]];outlineConnect=0;gradientColor=none;html=1;whiteSpace=wrap;fontSize=12;fontStyle=0;shape=mxgraph.aws4.group;grIcon=mxgraph.aws4.group_region;strokeColor=#147EBA;fillColor=#ffffff;verticalAlign=top;align=left;spacingLeft=30;fontColor=#147EBA;dashed=0;rounded=0;labelBackgroundColor=none;" parent="L9JoxpAC8Ri2-nQZ87xy-1" vertex="1">
          <mxGeometry x="880" y="125" width="130" height="135" as="geometry" />
        </mxCell>
        <mxCell id="ja6iWN-40AisyCTLCEKB-6" value="&lt;p style=&quot;line-height: 20% ; font-size: 6px&quot;&gt;QA Cluster&lt;/p&gt;&lt;p&gt;&lt;/p&gt;" style="outlineConnect=0;fontColor=#232F3E;gradientColor=none;gradientDirection=north;fillColor=#D05C17;strokeColor=#ffffff;dashed=0;verticalLabelPosition=bottom;verticalAlign=top;align=center;html=1;fontSize=12;fontStyle=0;aspect=fixed;shape=mxgraph.aws4.resourceIcon;resIcon=mxgraph.aws4.eks;rounded=1;shadow=0;glass=0;comic=0;labelBackgroundColor=none;spacing=0;" parent="L9JoxpAC8Ri2-nQZ87xy-1" vertex="1">
          <mxGeometry x="906" y="160" width="78" height="78" as="geometry" />
        </mxCell>
        <mxCell id="LKwXHTUsv61SPuzqAhND-0" value="Release Pipeline" style="fillColor=#ffffff;strokeColor=#000000;dashed=0;verticalAlign=top;fontStyle=5;rounded=0;glass=0;labelBackgroundColor=none;comic=0;shadow=0;fontSize=15;strokeWidth=1;" parent="L9JoxpAC8Ri2-nQZ87xy-1" vertex="1">
          <mxGeometry x="650" y="630" width="420" height="100" as="geometry" />
        </mxCell>
        <mxCell id="LKwXHTUsv61SPuzqAhND-4" value="Jenkins&lt;br&gt;" style="shape=image;html=1;verticalAlign=bottom;verticalLabelPosition=top;labelBackgroundColor=none;imageAspect=0;aspect=fixed;image=https://cdn4.iconfinder.com/data/icons/logos-brands-5/24/jenkins-128.png;rounded=1;shadow=0;glass=0;comic=0;strokeColor=#000000;strokeWidth=2;fillColor=#99DAFF;gradientColor=none;fontSize=10;fontColor=#007FFF;labelPosition=center;align=center;" parent="L9JoxpAC8Ri2-nQZ87xy-1" vertex="1">
          <mxGeometry x="710" y="262.5" width="60" height="60" as="geometry" />
        </mxCell>
        <mxCell id="iSgi3c0erq972QO4khzS-0" value="us-east-1" style="points=[[0,0],[0.25,0],[0.5,0],[0.75,0],[1,0],[1,0.25],[1,0.5],[1,0.75],[1,1],[0.75,1],[0.5,1],[0.25,1],[0,1],[0,0.75],[0,0.5],[0,0.25]];outlineConnect=0;gradientColor=none;html=1;whiteSpace=wrap;fontSize=12;fontStyle=0;shape=mxgraph.aws4.group;grIcon=mxgraph.aws4.group_region;strokeColor=#147EBA;fillColor=#ffffff;verticalAlign=top;align=left;spacingLeft=30;fontColor=#147EBA;dashed=0;rounded=0;labelBackgroundColor=none;" parent="L9JoxpAC8Ri2-nQZ87xy-1" vertex="1">
          <mxGeometry x="880" y="322.5" width="130" height="135" as="geometry" />
        </mxCell>
        <mxCell id="LKwXHTUsv61SPuzqAhND-3" value="Prod Cluster" style="outlineConnect=0;fontColor=#232F3E;gradientColor=none;gradientDirection=north;fillColor=#D05C17;strokeColor=#ffffff;dashed=0;verticalLabelPosition=bottom;verticalAlign=top;align=center;html=1;fontSize=12;fontStyle=0;aspect=fixed;shape=mxgraph.aws4.resourceIcon;resIcon=mxgraph.aws4.eks;rounded=1;shadow=0;glass=0;comic=0;labelBackgroundColor=none;labelPosition=center;spacing=0;" parent="L9JoxpAC8Ri2-nQZ87xy-1" vertex="1">
          <mxGeometry x="902" y="357" width="78" height="78" as="geometry" />
        </mxCell>
        <mxCell id="qDtRy-bQmnk5R5-zJmXB-0" style="edgeStyle=orthogonalEdgeStyle;rounded=0;orthogonalLoop=1;jettySize=auto;html=1;exitX=1;exitY=0.25;exitDx=0;exitDy=0;" parent="L9JoxpAC8Ri2-nQZ87xy-1" source="LKwXHTUsv61SPuzqAhND-4" target="ja6iWN-40AisyCTLCEKB-6" edge="1">
          <mxGeometry relative="1" as="geometry">
            <Array as="points">
              <mxPoint x="800" y="278" />
              <mxPoint x="800" y="200" />
            </Array>
          </mxGeometry>
        </mxCell>
        <mxCell id="qDtRy-bQmnk5R5-zJmXB-1" style="edgeStyle=orthogonalEdgeStyle;rounded=0;orthogonalLoop=1;jettySize=auto;html=1;exitX=1;exitY=0.25;exitDx=0;exitDy=0;strokeColor=#006EAF;strokeWidth=2;startSize=6;endSize=3;" parent="L9JoxpAC8Ri2-nQZ87xy-1" source="wR72YHIJxS_Ip5BLtquk-0" target="tx1DFKtjOjGbV4j4rzNq-1" edge="1">
          <mxGeometry relative="1" as="geometry">
            <Array as="points">
              <mxPoint x="310" y="315" />
              <mxPoint x="310" y="290" />
            </Array>
          </mxGeometry>
        </mxCell>
        <mxCell id="LKwXHTUsv61SPuzqAhND-1" value="&lt;b style=&quot;font-size: 10px&quot;&gt;&lt;font face=&quot;Tahoma&quot; style=&quot;font-size: 10px&quot;&gt;5&lt;/font&gt;&lt;/b&gt;" style="ellipse;whiteSpace=wrap;html=1;aspect=fixed;rounded=1;shadow=0;glass=0;comic=0;labelBackgroundColor=none;strokeColor=#000000;fillColor=#99DAFF;gradientColor=none;labelBorderColor=none;fontColor=#858585;perimeterSpacing=29;strokeWidth=2;fontSize=10;" parent="L9JoxpAC8Ri2-nQZ87xy-1" vertex="1">
          <mxGeometry x="330" y="282.5" width="20" height="20" as="geometry" />
        </mxCell>
        <mxCell id="qDtRy-bQmnk5R5-zJmXB-4" value="&lt;b&gt;5 &lt;/b&gt;Run Tests" style="text;html=1;resizable=0;autosize=1;align=left;verticalAlign=middle;points=[];fillColor=none;strokeColor=none;rounded=0;shadow=0;glass=0;comic=0;labelBackgroundColor=none;fontSize=15;fontColor=#007FFF;" parent="L9JoxpAC8Ri2-nQZ87xy-1" vertex="1">
          <mxGeometry x="100" y="730" width="90" height="20" as="geometry" />
        </mxCell>
      </root>
    </mxGraphModel>
  </diagram>
  <diagram id="f106602c-feb2-e66a-4537-3a34d633f6aa" name="Page-1">
    
    <mxGraphModel dx="2062" dy="1210" grid="1" gridSize="10" guides="1" tooltips="1" connect="1" arrows="1" fold="1" page="1" pageScale="1" pageWidth="1169" pageHeight="827" background="#ffffff" math="0" shadow="0">
      
      <root>
        
        <mxCell id="0" />
        
        <mxCell id="1" parent="0" />
        
        <mxCell id="14" value="&lt;b&gt;Google &lt;/b&gt;Cloud Platform" style="fillColor=#F6F6F6;strokeColor=none;shadow=0;gradientColor=none;fontSize=14;align=left;spacing=10;fontColor=#717171;9E9E9E;verticalAlign=top;spacingTop=-4;fontStyle=0;spacingLeft=40;html=1;imageAspect=1;" parent="1" vertex="1">
          
          <mxGeometry x="230" y="100" width="680" height="480" as="geometry" />
          
        </mxCell>
        
        <mxCell id="15" value="" style="shape=mxgraph.gcp2.google_cloud_platform;fillColor=#F6F6F6;strokeColor=none;shadow=0;gradientColor=none;" parent="14" vertex="1">
          
          <mxGeometry width="23" height="20" relative="1" as="geometry">
            
            <mxPoint x="20" y="10" as="offset" />
            
          </mxGeometry>
          
        </mxCell>
        
        <mxCell id="756" value="Users" style="rounded=1;absoluteArcSize=1;arcSize=2;html=1;strokeColor=none;gradientColor=none;shadow=0;dashed=0;strokeColor=none;fontSize=12;fontColor=#9E9E9E;align=left;verticalAlign=top;spacing=10;spacingTop=-4;fillColor=#F1F8E9;" parent="1" vertex="1">
          
          <mxGeometry x="940" y="290" width="90" height="190" as="geometry" />
          
        </mxCell>
        
        <mxCell id="754" value="us-central1-f" style="rounded=1;absoluteArcSize=1;arcSize=2;html=1;strokeColor=none;gradientColor=none;shadow=0;dashed=0;strokeColor=none;fontSize=12;fontColor=#9E9E9E;align=left;verticalAlign=top;spacing=10;spacingTop=-4;fillColor=#E1F5FE;" parent="1" vertex="1">
          
          <mxGeometry x="530" y="440" width="175" height="120" as="geometry" />
          
        </mxCell>
        
        <mxCell id="753" value="us-east1-d" style="rounded=1;absoluteArcSize=1;arcSize=2;html=1;strokeColor=none;gradientColor=none;shadow=0;dashed=0;strokeColor=none;fontSize=12;fontColor=#9E9E9E;align=left;verticalAlign=top;spacing=10;spacingTop=-4;fillColor=#E1F5FE;" parent="1" vertex="1">
          
          <mxGeometry x="530" y="170" width="180" height="220" as="geometry" />
          
        </mxCell>
        
        <mxCell id="757" style="edgeStyle=orthogonalEdgeStyle;rounded=0;html=1;labelBackgroundColor=none;startFill=1;startSize=4;endArrow=blockThin;endFill=1;endSize=4;jettySize=auto;orthogonalLoop=1;strokeColor=#4284F3;strokeWidth=2;fontSize=12;fontColor=#000000;align=center;dashed=0;" parent="1" source="734" target="735" edge="1">
          
          <mxGeometry relative="1" as="geometry" />
          
        </mxCell>
        
        <mxCell id="734" value="Development&lt;br&gt;Team&lt;br&gt;" style="rounded=1;absoluteArcSize=1;arcSize=2;html=1;strokeColor=none;gradientColor=none;shadow=0;dashed=0;strokeColor=none;fontSize=12;fontColor=#9E9E9E;align=left;verticalAlign=top;spacing=10;spacingTop=-4;fillColor=#F3E5F5;" parent="1" vertex="1">
          
          <mxGeometry x="90" y="170" width="90" height="120" as="geometry" />
          
        </mxCell>
        
        <mxCell id="732" value="" style="strokeColor=#dddddd;fillColor=#ffffff;shadow=1;strokeWidth=1;rounded=1;absoluteArcSize=1;arcSize=2;labelPosition=center;verticalLabelPosition=middle;align=center;verticalAlign=bottom;spacingLeft=0;fontColor=#999999;fontSize=12;whiteSpace=wrap;spacingBottom=2;html=1;" parent="1" vertex="1">
          
          <mxGeometry x="100" y="210" width="70" height="70" as="geometry" />
          
        </mxCell>
        
        <mxCell id="733" value="" style="dashed=0;connectable=0;html=1;fillColor=#757575;strokeColor=none;shape=mxgraph.gcp2.laptop;part=1;" parent="732" vertex="1">
          
          <mxGeometry x="0.5" width="50" height="33" relative="1" as="geometry">
            
            <mxPoint x="-25" y="18.5" as="offset" />
            
          </mxGeometry>
          
        </mxCell>
        
        <mxCell id="758" style="edgeStyle=orthogonalEdgeStyle;rounded=0;html=1;labelBackgroundColor=none;startFill=1;startSize=4;endArrow=blockThin;endFill=1;endSize=4;jettySize=auto;orthogonalLoop=1;strokeColor=#4284F3;strokeWidth=2;fontSize=12;fontColor=#000000;align=center;dashed=0;" parent="1" source="735" target="737" edge="1">
          
          <mxGeometry relative="1" as="geometry" />
          
        </mxCell>
        
        <mxCell id="735" value="" style="strokeColor=#dddddd;fillColor=#ffffff;shadow=1;strokeWidth=1;rounded=1;absoluteArcSize=1;arcSize=2;fontSize=10;fontColor=#9E9E9E;align=center;html=1;" parent="1" vertex="1">
          
          <mxGeometry x="250" y="200" width="160" height="60" as="geometry" />
          
        </mxCell>
        
        <mxCell id="736" value="&lt;font color=&quot;#000000&quot;&gt;Code Repository&lt;/font&gt;&lt;br&gt;DevTools" style="dashed=0;connectable=0;html=1;fillColor=#5184F3;strokeColor=none;shape=mxgraph.gcp2.hexIcon;prIcon=cloud_tools_for_powershell;part=1;labelPosition=right;verticalLabelPosition=middle;align=left;verticalAlign=middle;spacingLeft=5;fontColor=#999999;fontSize=12;" parent="735" vertex="1">
          
          <mxGeometry y="0.5" width="44" height="39" relative="1" as="geometry">
            
            <mxPoint x="5" y="-19.5" as="offset" />
            
          </mxGeometry>
          
        </mxCell>
        
        <mxCell id="759" style="edgeStyle=orthogonalEdgeStyle;rounded=0;html=1;labelBackgroundColor=none;startFill=1;startSize=4;endArrow=blockThin;endFill=1;endSize=4;jettySize=auto;orthogonalLoop=1;strokeColor=#4284F3;strokeWidth=2;fontSize=12;fontColor=#000000;align=center;dashed=0;" parent="1" source="737" target="739" edge="1">
          
          <mxGeometry relative="1" as="geometry" />
          
        </mxCell>
        
        <mxCell id="760" style="edgeStyle=orthogonalEdgeStyle;rounded=0;html=1;labelBackgroundColor=none;startFill=1;startSize=4;endArrow=blockThin;endFill=1;endSize=4;jettySize=auto;orthogonalLoop=1;strokeColor=#4284F3;strokeWidth=2;fontSize=12;fontColor=#000000;align=center;dashed=0;" parent="1" source="737" target="741" edge="1">
          
          <mxGeometry relative="1" as="geometry">
            
            <Array as="points">
              
              <mxPoint x="460" y="333" />
              
              <mxPoint x="460" y="238" />
              
            </Array>
            
          </mxGeometry>
          
        </mxCell>
        
        <mxCell id="737" value="" style="strokeColor=#dddddd;fillColor=#ffffff;shadow=1;strokeWidth=1;rounded=1;absoluteArcSize=1;arcSize=2;fontSize=10;fontColor=#9E9E9E;align=center;html=1;" parent="1" vertex="1">
          
          <mxGeometry x="250" y="303.5" width="160" height="60" as="geometry" />
          
        </mxCell>
        
        <mxCell id="738" value="&lt;font color=&quot;#000000&quot;&gt;Spinnaker&lt;/font&gt;&lt;br&gt;Compute Engine" style="dashed=0;connectable=0;html=1;fillColor=#5184F3;strokeColor=none;shape=mxgraph.gcp2.hexIcon;prIcon=compute_engine;part=1;labelPosition=right;verticalLabelPosition=middle;align=left;verticalAlign=middle;spacingLeft=5;fontColor=#999999;fontSize=12;" parent="737" vertex="1">
          
          <mxGeometry y="0.5" width="44" height="39" relative="1" as="geometry">
            
            <mxPoint x="5" y="-19.5" as="offset" />
            
          </mxGeometry>
          
        </mxCell>
        
        <mxCell id="762" style="edgeStyle=orthogonalEdgeStyle;rounded=0;html=1;labelBackgroundColor=none;startFill=1;startSize=4;endArrow=blockThin;endFill=1;endSize=4;jettySize=auto;orthogonalLoop=1;strokeColor=#4284F3;strokeWidth=2;fontSize=12;fontColor=#000000;align=center;dashed=0;" parent="1" source="739" target="741" edge="1">
          
          <mxGeometry relative="1" as="geometry">
            
            <Array as="points">
              
              <mxPoint x="500" y="430" />
              
              <mxPoint x="500" y="260" />
              
            </Array>
            
          </mxGeometry>
          
        </mxCell>
        
        <mxCell id="763" style="edgeStyle=orthogonalEdgeStyle;rounded=0;html=1;labelBackgroundColor=none;startFill=1;startSize=4;endArrow=blockThin;endFill=1;endSize=4;jettySize=auto;orthogonalLoop=1;strokeColor=#4284F3;strokeWidth=2;fontSize=12;fontColor=#000000;align=center;dashed=0;" parent="1" source="739" target="743" edge="1">
          
          <mxGeometry relative="1" as="geometry">
            
            <Array as="points">
              
              <mxPoint x="520" y="460" />
              
              <mxPoint x="520" y="339" />
              
            </Array>
            
          </mxGeometry>
          
        </mxCell>
        
        <mxCell id="764" style="edgeStyle=orthogonalEdgeStyle;rounded=0;html=1;labelBackgroundColor=none;startFill=1;startSize=4;endArrow=blockThin;endFill=1;endSize=4;jettySize=auto;orthogonalLoop=1;strokeColor=#4284F3;strokeWidth=2;fontSize=12;fontColor=#000000;align=center;dashed=0;" parent="1" source="739" target="745" edge="1">
          
          <mxGeometry relative="1" as="geometry">
            
            <Array as="points">
              
              <mxPoint x="520" y="460" />
              
              <mxPoint x="520" y="481" />
              
            </Array>
            
          </mxGeometry>
          
        </mxCell>
        
        <mxCell id="739" value="" style="strokeColor=#dddddd;fillColor=#ffffff;shadow=1;strokeWidth=1;rounded=1;absoluteArcSize=1;arcSize=2;fontSize=10;fontColor=#9E9E9E;align=center;html=1;" parent="1" vertex="1">
          
          <mxGeometry x="250" y="411" width="160" height="70" as="geometry" />
          
        </mxCell>
        
        <mxCell id="740" value="&lt;font color=&quot;#000000&quot;&gt;Cloud Image&lt;/font&gt;&lt;br&gt;Compute Engine&lt;hr&gt;&lt;font style=&quot;font-size: 11px&quot;&gt;Build Artifact&lt;/font&gt;" style="dashed=0;connectable=0;html=1;fillColor=#5184F3;strokeColor=none;shape=mxgraph.gcp2.hexIcon;prIcon=compute_engine;part=1;labelPosition=right;verticalLabelPosition=middle;align=left;verticalAlign=top;spacingLeft=5;fontColor=#999999;fontSize=12;spacingTop=-8;" parent="739" vertex="1">
          
          <mxGeometry width="44" height="39" relative="1" as="geometry">
            
            <mxPoint x="5" y="7" as="offset" />
            
          </mxGeometry>
          
        </mxCell>
        
        <mxCell id="741" value="" style="shape=mxgraph.gcp2.doubleRect;strokeColor=#dddddd;fillColor=#ffffff;shadow=1;strokeWidth=1;fontSize=10;fontColor=#9E9E9E;align=center;html=1;" parent="1" vertex="1">
          
          <mxGeometry x="540" y="199" width="158" height="78" as="geometry" />
          
        </mxCell>
        
        <mxCell id="742" value="&lt;font color=&quot;#000000&quot;&gt;Test Instances&lt;/font&gt;&lt;br&gt;Compute Engine&lt;hr&gt;&lt;font style=&quot;font-size: 11px&quot;&gt;Build Artifact&lt;/font&gt;" style="dashed=0;connectable=0;html=1;fillColor=#5184F3;strokeColor=none;shape=mxgraph.gcp2.hexIcon;prIcon=compute_engine;part=1;labelPosition=right;verticalLabelPosition=middle;align=left;verticalAlign=top;spacingLeft=5;fontColor=#999999;fontSize=12;spacingTop=-8;" parent="741" vertex="1">
          
          <mxGeometry width="44" height="39" relative="1" as="geometry">
            
            <mxPoint x="5" y="7" as="offset" />
            
          </mxGeometry>
          
        </mxCell>
        
        <mxCell id="743" value="" style="shape=mxgraph.gcp2.doubleRect;strokeColor=#dddddd;fillColor=#ffffff;shadow=1;strokeWidth=1;fontSize=10;fontColor=#9E9E9E;align=center;html=1;" parent="1" vertex="1">
          
          <mxGeometry x="541" y="300" width="158" height="78" as="geometry" />
          
        </mxCell>
        
        <mxCell id="744" value="&lt;font color=&quot;#000000&quot;&gt;Prod Instances&lt;/font&gt;&lt;br&gt;Compute Engine&lt;hr&gt;&lt;font style=&quot;font-size: 11px&quot;&gt;Autoscaler&lt;/font&gt;" style="dashed=0;connectable=0;html=1;fillColor=#5184F3;strokeColor=none;shape=mxgraph.gcp2.hexIcon;prIcon=compute_engine;part=1;labelPosition=right;verticalLabelPosition=middle;align=left;verticalAlign=top;spacingLeft=5;fontColor=#999999;fontSize=12;spacingTop=-8;" parent="743" vertex="1">
          
          <mxGeometry width="44" height="39" relative="1" as="geometry">
            
            <mxPoint x="5" y="7" as="offset" />
            
          </mxGeometry>
          
        </mxCell>
        
        <mxCell id="745" value="" style="shape=mxgraph.gcp2.doubleRect;strokeColor=#dddddd;fillColor=#ffffff;shadow=1;strokeWidth=1;fontSize=10;fontColor=#9E9E9E;align=center;html=1;" parent="1" vertex="1">
          
          <mxGeometry x="540" y="470" width="158" height="78" as="geometry" />
          
        </mxCell>
        
        <mxCell id="746" value="&lt;font color=&quot;#000000&quot;&gt;Prod Instances&lt;/font&gt;&lt;br&gt;Compute Engine&lt;hr&gt;&lt;font style=&quot;font-size: 11px&quot;&gt;Autoscaler&lt;/font&gt;" style="dashed=0;connectable=0;html=1;fillColor=#5184F3;strokeColor=none;shape=mxgraph.gcp2.hexIcon;prIcon=compute_engine;part=1;labelPosition=right;verticalLabelPosition=middle;align=left;verticalAlign=top;spacingLeft=5;fontColor=#999999;fontSize=12;spacingTop=-8;" parent="745" vertex="1">
          
          <mxGeometry width="44" height="39" relative="1" as="geometry">
            
            <mxPoint x="5" y="7" as="offset" />
            
          </mxGeometry>
          
        </mxCell>
        
        <mxCell id="765" style="edgeStyle=orthogonalEdgeStyle;rounded=0;html=1;labelBackgroundColor=none;startFill=1;startSize=4;endArrow=blockThin;endFill=1;endSize=4;jettySize=auto;orthogonalLoop=1;strokeColor=#9E9E9E;strokeWidth=2;fontSize=12;fontColor=#000000;align=center;dashed=0;" parent="1" source="747" target="743" edge="1">
          
          <mxGeometry relative="1" as="geometry">
            
            <Array as="points">
              
              <mxPoint x="730" y="410" />
              
              <mxPoint x="730" y="339" />
              
            </Array>
            
          </mxGeometry>
          
        </mxCell>
        
        <mxCell id="766" style="edgeStyle=orthogonalEdgeStyle;rounded=0;html=1;labelBackgroundColor=none;startFill=1;startSize=4;endArrow=blockThin;endFill=1;endSize=4;jettySize=auto;orthogonalLoop=1;strokeColor=#9E9E9E;strokeWidth=2;fontSize=12;fontColor=#000000;align=center;dashed=0;" parent="1" source="747" target="745" edge="1">
          
          <mxGeometry relative="1" as="geometry">
            
            <Array as="points">
              
              <mxPoint x="730" y="410" />
              
              <mxPoint x="730" y="509" />
              
            </Array>
            
          </mxGeometry>
          
        </mxCell>
        
        <mxCell id="747" value="" style="strokeColor=#dddddd;fillColor=#ffffff;shadow=1;strokeWidth=1;rounded=1;absoluteArcSize=1;arcSize=2;fontSize=10;fontColor=#9E9E9E;align=center;html=1;" parent="1" vertex="1">
          
          <mxGeometry x="757.5" y="375" width="130" height="60" as="geometry" />
          
        </mxCell>
        
        <mxCell id="748" value="Cloud Load&#xa;Balancing" style="dashed=0;connectable=0;html=1;fillColor=#5184F3;strokeColor=none;shape=mxgraph.gcp2.hexIcon;prIcon=cloud_load_balancing;part=1;labelPosition=right;verticalLabelPosition=middle;align=left;verticalAlign=middle;spacingLeft=5;fontColor=#999999;fontSize=12;" parent="747" vertex="1">
          
          <mxGeometry y="0.5" width="44" height="39" relative="1" as="geometry">
            
            <mxPoint x="5" y="-19.5" as="offset" />
            
          </mxGeometry>
          
        </mxCell>
        
        <mxCell id="767" style="edgeStyle=orthogonalEdgeStyle;rounded=0;html=1;labelBackgroundColor=none;startFill=1;startSize=4;endArrow=blockThin;endFill=1;endSize=4;jettySize=auto;orthogonalLoop=1;strokeColor=#9E9E9E;strokeWidth=2;fontSize=12;fontColor=#000000;align=center;dashed=0;" parent="1" source="749" target="747" edge="1">
          
          <mxGeometry relative="1" as="geometry" />
          
        </mxCell>
        
        <mxCell id="749" value="" style="strokeColor=#dddddd;fillColor=#ffffff;shadow=1;strokeWidth=1;rounded=1;absoluteArcSize=1;arcSize=2;labelPosition=center;verticalLabelPosition=middle;align=center;verticalAlign=bottom;spacingLeft=0;fontColor=#999999;fontSize=12;whiteSpace=wrap;spacingBottom=2;html=1;" parent="1" vertex="1">
          
          <mxGeometry x="950" y="320" width="70" height="69" as="geometry" />
          
        </mxCell>
        
        <mxCell id="750" value="" style="dashed=0;connectable=0;html=1;fillColor=#757575;strokeColor=none;shape=mxgraph.gcp2.laptop;part=1;" parent="749" vertex="1">
          
          <mxGeometry x="0.5" width="50" height="33" relative="1" as="geometry">
            
            <mxPoint x="-25" y="18.5" as="offset" />
            
          </mxGeometry>
          
        </mxCell>
        
        <mxCell id="768" style="edgeStyle=orthogonalEdgeStyle;rounded=0;html=1;labelBackgroundColor=none;startFill=1;startSize=4;endArrow=blockThin;endFill=1;endSize=4;jettySize=auto;orthogonalLoop=1;strokeColor=#9E9E9E;strokeWidth=2;fontSize=12;fontColor=#000000;align=center;dashed=0;" parent="1" source="751" target="747" edge="1">
          
          <mxGeometry relative="1" as="geometry" />
          
        </mxCell>
        
        <mxCell id="751" value="" style="strokeColor=#dddddd;fillColor=#ffffff;shadow=1;strokeWidth=1;rounded=1;absoluteArcSize=1;arcSize=2;labelPosition=center;verticalLabelPosition=middle;align=center;verticalAlign=bottom;spacingLeft=0;fontColor=#999999;fontSize=12;whiteSpace=wrap;spacingBottom=2;html=1;" parent="1" vertex="1">
          
          <mxGeometry x="950" y="405" width="70" height="65" as="geometry" />
          
        </mxCell>
        
        <mxCell id="752" value="" style="dashed=0;connectable=0;html=1;fillColor=#757575;strokeColor=none;shape=mxgraph.gcp2.mobile_devices;part=1;" parent="751" vertex="1">
          
          <mxGeometry x="0.5" width="50" height="36.5" relative="1" as="geometry">
            
            <mxPoint x="-25" y="16.75" as="offset" />
            
          </mxGeometry>
          
        </mxCell>
        
        <mxCell id="771" value="1" style="shape=ellipse;fillColor=#ffffff;strokeColor=#BDBDBD;strokeWidth=2;shadow=0;gradientColor=none;fontColor=#757575;align=center;html=1;fontStyle=1;spacingTop=-1;" parent="1" vertex="1">
          
          <mxGeometry x="192.5" y="220" width="20" height="20" as="geometry" />
          
        </mxCell>
        
        <mxCell id="772" value="2" style="shape=ellipse;fillColor=#ffffff;strokeColor=#BDBDBD;strokeWidth=2;shadow=0;gradientColor=none;fontColor=#757575;align=center;html=1;fontStyle=1;spacingTop=-1;" parent="1" vertex="1">
          
          <mxGeometry x="319.5" y="268" width="20" height="20" as="geometry" />
          
        </mxCell>
        
        <mxCell id="773" value="3" style="shape=ellipse;fillColor=#ffffff;strokeColor=#BDBDBD;strokeWidth=2;shadow=0;gradientColor=none;fontColor=#757575;align=center;html=1;fontStyle=1;spacingTop=-1;" parent="1" vertex="1">
          
          <mxGeometry x="319.5" y="374.5" width="20" height="20" as="geometry" />
          
        </mxCell>
        
        <mxCell id="774" value="4" style="shape=ellipse;fillColor=#ffffff;strokeColor=#BDBDBD;strokeWidth=2;shadow=0;gradientColor=none;fontColor=#757575;align=center;html=1;fontStyle=1;spacingTop=-1;" parent="1" vertex="1">
          
          <mxGeometry x="426" y="420" width="20" height="20" as="geometry" />
          
        </mxCell>
        
        <mxCell id="775" value="5" style="shape=ellipse;fillColor=#ffffff;strokeColor=#BDBDBD;strokeWidth=2;shadow=0;gradientColor=none;fontColor=#757575;align=center;html=1;fontStyle=1;spacingTop=-1;" parent="1" vertex="1">
          
          <mxGeometry x="423.5" y="323.5" width="20" height="20" as="geometry" />
          
        </mxCell>
        
        <mxCell id="776" value="6" style="shape=ellipse;fillColor=#ffffff;strokeColor=#BDBDBD;strokeWidth=2;shadow=0;gradientColor=none;fontColor=#757575;align=center;html=1;fontStyle=1;spacingTop=-1;" parent="1" vertex="1">
          
          <mxGeometry x="426" y="451" width="20" height="20" as="geometry" />
          
        </mxCell>
        
        <mxCell id="779" value="" style="fillColor=#ffffff;strokeColor=#BDBDBD;strokeWidth=1;shadow=0;gradientColor=none;fontSize=10;fontColor=#9E9E9E;align=center;html=1;" parent="1" vertex="1">
          
          <mxGeometry x="250" y="620" width="600" height="70" as="geometry" />
          
        </mxCell>
        
        <mxCell id="780" value="1 Commit code" style="strokeColor=none;fillColor=none;fontColor=#757575;align=left;html=1;fontStyle=0;spacingLeft=5;fontSize=11;verticalAlign=top;whiteSpace=wrap;spacingRight=5;" parent="779" vertex="1">
          
          <mxGeometry width="200" height="30" relative="1" as="geometry" />
          
        </mxCell>
        
        <mxCell id="781" value="2 Detect code change" style="strokeColor=none;fillColor=none;fontColor=#757575;align=left;html=1;fontStyle=0;spacingLeft=5;fontSize=11;verticalAlign=top;whiteSpace=wrap;spacingRight=5;" parent="779" vertex="1">
          
          <mxGeometry width="200" height="30" relative="1" as="geometry">
            
            <mxPoint y="30" as="offset" />
            
          </mxGeometry>
          
        </mxCell>
        
        <mxCell id="782" value="3 Build immutable image" style="strokeColor=none;fillColor=none;fontColor=#757575;align=left;html=1;fontStyle=0;spacingLeft=5;fontSize=11;verticalAlign=top;whiteSpace=wrap;spacingRight=5;" parent="779" vertex="1">
          
          <mxGeometry width="200" height="30" relative="1" as="geometry">
            
            <mxPoint x="200" as="offset" />
            
          </mxGeometry>
          
        </mxCell>
        
        <mxCell id="783" value="4 Launch test instance from image" style="strokeColor=none;fillColor=none;fontColor=#757575;align=left;html=1;fontStyle=0;spacingLeft=5;fontSize=11;verticalAlign=top;whiteSpace=wrap;spacingRight=5;" parent="779" vertex="1">
          
          <mxGeometry width="200" height="30" relative="1" as="geometry">
            
            <mxPoint x="200" y="30" as="offset" />
            
          </mxGeometry>
          
        </mxCell>
        
        <mxCell id="784" value="5 Run tests" style="strokeColor=none;fillColor=none;fontColor=#757575;align=left;html=1;fontStyle=0;spacingLeft=5;fontSize=11;verticalAlign=top;whiteSpace=wrap;spacingRight=5;" parent="779" vertex="1">
          
          <mxGeometry width="200" height="30" relative="1" as="geometry">
            
            <mxPoint x="400" as="offset" />
            
          </mxGeometry>
          
        </mxCell>
        
        <mxCell id="785" value="6 Perform rolling update of image to autoscaler" style="strokeColor=none;fillColor=none;fontColor=#757575;align=left;html=1;fontStyle=0;spacingLeft=5;fontSize=11;verticalAlign=top;whiteSpace=wrap;spacingRight=5;" parent="779" vertex="1">
          
          <mxGeometry width="200" height="30" relative="1" as="geometry">
            
            <mxPoint x="400" y="30" as="offset" />
            
          </mxGeometry>
          
        </mxCell>
        
        <mxCell id="805" value="&lt;span style=&quot;background-color: rgb(222 , 222 , 222)&quot;&gt;AWS Cloud&lt;/span&gt;" style="points=[[0,0],[0.25,0],[0.5,0],[0.75,0],[1,0],[1,0.25],[1,0.5],[1,0.75],[1,1],[0.75,1],[0.5,1],[0.25,1],[0,1],[0,0.75],[0,0.5],[0,0.25]];outlineConnect=0;gradientColor=none;html=1;whiteSpace=wrap;fontSize=12;fontStyle=0;shape=mxgraph.aws4.group;grIcon=mxgraph.aws4.group_aws_cloud_alt;strokeColor=#232F3E;fillColor=#DEDEDE;verticalAlign=top;align=left;spacingLeft=30;fontColor=#232F3E;dashed=0;rounded=1;glass=1;labelBackgroundColor=#CCCCCC;" parent="1" vertex="1">
          
          <mxGeometry x="170" y="810" width="130" height="130" as="geometry" />
          
        </mxCell>
        
      </root>
      
    </mxGraphModel>
    
  </diagram>
</mxfile>
